<svg width="117" height="117" viewBox="0 0 117 117" fill="none" xmlns="http://www.w3.org/2000/svg">
<path d="M25.3333 1.20001C16 4.13335 7.86663 11.0667 3.19996 20C0.933293 24.1333 0.666626 28.1333 0.666626 58.6667C0.666626 89.2 0.933293 93.2 3.19996 97.3333C6.66663 103.867 13.0666 110.4 19.3333 113.733C24.4 116.533 26.4 116.667 58.6666 116.667C89.2 116.667 93.2 116.4 97.3333 114.133C103.867 110.667 110.4 104.267 113.733 98C116.533 92.9333 116.667 90.9333 116.667 58.6667C116.667 26.4 116.533 24.4 113.733 19.3333C110.4 13.0667 103.867 6.66668 97.3333 3.20001C93.2 0.933345 89.0666 0.666679 60.6666 0.400012C43.0666 0.266679 27.2 0.666679 25.3333 1.20001ZM94.6666 23.3333C98.1333 27.6 92.9333 34.1333 88.4 31.2C83.7333 28.2667 85.3333 21.3333 90.6666 21.3333C92 21.3333 93.7333 22.2667 94.6666 23.3333ZM74.1333 34.1333C83.2 39.7333 88.4 49.7333 87.7333 60.2667C86.1333 82.6667 62.2666 95.0667 43.2 83.2C34.1333 77.6 28.9333 67.6 29.6 57.0667C31.2 34.6667 55.0666 22.2667 74.1333 34.1333Z" fill="#757575"/>
<path d="M47.9999 37.6C30.3999 46.5333 30.3999 70.8 47.9999 79.6C55.4666 83.4667 61.8666 83.4667 69.3333 79.7333C86.9333 70.8 86.9333 46.5333 69.3333 37.6C66.1333 36 61.3333 34.6667 58.6666 34.6667C55.9999 34.6667 51.1999 36 47.9999 37.6Z" fill="#757575"/>
</svg>
