<svg width="113" height="113" viewBox="0 0 113 113" fill="none" xmlns="http://www.w3.org/2000/svg">
<path d="M7.46663 2.53332C0.933293 6.13332 0.799959 7.46666 0.666626 56.4C0.666626 106 0.933293 107.867 7.99996 111.067C13.4666 113.6 100.933 113.333 105.867 110.8C112.4 107.333 112.667 105.333 112.667 56.6667C112.667 7.99999 112.4 5.99999 105.867 2.53332C100.667 -0.133345 12.2666 -0.133345 7.46663 2.53332ZM32.9333 24.2667C35.8666 26.9333 36 29.7333 33.0666 32.9333C29.0666 37.3333 19.3333 34.5333 19.3333 28.9333C19.3333 22.9333 28.1333 19.8667 32.9333 24.2667ZM35.3333 68.6667V94H27.3333H19.3333V68.6667V43.3333H27.3333H35.3333V68.6667ZM59.3333 46.6667V50.1333L63.2 47.2C71.4666 41.0667 84.2666 43.2 90.5333 51.7333C93.0666 55.0667 93.3333 57.8667 93.7333 74.8L94.2666 94H86.1333H78V78.8C78 65.6 77.6 63.2 75.2 60.1333C73.4666 57.8667 71.2 56.6667 68.6666 56.6667C66.1333 56.6667 63.8666 57.8667 62.1333 60.1333C59.7333 63.2 59.3333 65.6 59.3333 78.8V94H51.3333H43.3333V68.6667V43.3333H51.3333C59.0666 43.3333 59.3333 43.4667 59.3333 46.6667Z" fill="#757575"/>
</svg>
