<?xml version="1.0" standalone="no"?>
<!DOCTYPE svg PUBLIC "-//W3C//DTD SVG 20010904//EN"
 "http://www.w3.org/TR/2001/REC-SVG-20010904/DTD/svg10.dtd">
<svg version="1.0"
    xmlns="http://www.w3.org/2000/svg" width="30.000000pt" height="30.000000pt" viewBox="0 0 100.000000 100.000000" preserveAspectRatio="xMidYMid meet">

    <g transform="translate(0.000000,100.000000) scale(0.100000,-0.100000)" fill="#0f7db8" stroke="none">
        <path d="M160 877 c0 -30 61 -672 64 -675 3 -2 66 -22 140 -43 l136 -39 136
39 c74 21 137 41 140 43 3 3 64 645 64 675 0 2 -153 3 -340 3 -187 0 -340 -1
-340 -3z m632 -74 c-27 -329 -50 -565 -55 -569 -3 -3 -58 -21 -121 -39 l-116
-34 -116 34 c-63 18 -118 36 -121 39 -5 4 -28 240 -55 569 l-4 37 296 0 296 0
-4 -37z"/>
        <path d="M320 680 l0 -40 141 0 142 0 -7 -31 c-3 -17 -6 -35 -6 -40 0 -5 -40
-9 -90 -9 l-90 0 0 -40 0 -40 91 0 91 0 -7 -42 c-8 -50 -10 -52 -52 -66 -49
-16 -107 6 -111 41 -3 24 -8 27 -43 27 l-39 0 0 -54 0 -54 80 -27 80 -27 79
27 78 26 7 102 c3 56 9 144 12 195 l7 92 -182 0 -181 0 0 -40z"/>
    </g>
</svg>
