<svg width="120" height="114" viewBox="0 0 120 114" fill="none" xmlns="http://www.w3.org/2000/svg">
<path d="M45.9 1.73001C36.45 4.01801 22.95 11.74 16.35 18.461C13.05 21.893 8.1 29.043 5.55 34.334C1.2 43.057 0.75 45.202 0.75 57.5C0.75 69.798 1.2 71.943 5.4 80.523C12.9 95.681 22.8 104.404 39.45 111.125L45 113.27V106.835C45 100.4 45 100.4 39.6 100.4C32.25 100.4 29.25 98.541 26.55 91.963C25.2 88.817 23.4 85.957 22.5 85.385C21.75 84.956 21 83.955 21 83.097C21 80.523 25.05 81.953 29.25 86.1C32.7 89.532 34.8 90.39 39.6 90.39C44.85 90.39 46.35 89.675 49.95 85.385L54.15 80.38H50.7C44.4 80.38 31.65 73.659 28.5 68.654C24.75 62.791 24.6 52.638 28.05 46.775C29.55 44.201 30.6 39.053 30.6 33.905C30.75 26.183 31.05 25.325 34.05 24.896C35.85 24.61 39.6 25.611 42.3 26.898C49.65 30.759 75.45 30.759 82.05 27.041C84.75 25.611 88.5 24.61 90.3 24.896C93.45 25.325 93.75 26.183 93.9 33.19C93.9 37.48 94.95 42.914 96.3 45.345C100.5 53.067 100.95 58.358 97.8 65.079C94.35 72.372 88.65 76.662 79.05 79.093L72.3 80.952L75.9 85.957C78.9 90.104 79.5 92.821 79.5 100.686C79.5 111.983 79.95 112.126 90.75 106.263C100.8 100.829 108.75 92.106 114.6 80.523C118.8 71.943 119.25 69.798 119.25 57.357C119.25 44.487 118.95 43.2 113.7 32.904C103.5 13.456 85.5 1.87301 63.3 0.872007C57 0.586007 49.2 1.01501 45.9 1.73001Z" fill="#757575"/>
</svg>
