<?xml version="1.0" standalone="no"?>
<!DOCTYPE svg PUBLIC "-//W3C//DTD SVG 20010904//EN"
 "http://www.w3.org/TR/2001/REC-SVG-20010904/DTD/svg10.dtd">
<svg version="1.0"
    xmlns="http://www.w3.org/2000/svg" width="30.000000pt" height="30.000000pt" viewBox="0 0 100.000000 100.000000" preserveAspectRatio="xMidYMid meet">

    <g transform="translate(0.000000,100.000000) scale(0.100000,-0.100000)" fill="#0f7db8" stroke="none">
        <path d="M94 947 c-6 -17 65 -800 74 -808 4 -4 81 -28 171 -53 l163 -47 162
46 c88 26 164 49 168 53 9 9 80 792 74 809 -8 19 -804 19 -812 0z m770 -79
c-3 -29 -18 -198 -34 -376 -15 -178 -30 -324 -31 -326 -2 -1 -70 -21 -151 -43
l-148 -41 -147 41 c-82 22 -150 42 -152 43 -1 2 -16 148 -31 326 -16 178 -31
347 -34 376 l-6 52 370 0 370 0 -6 -52z"/>
        <path d="M238 789 c-4 -12 20 -297 27 -316 3 -10 47 -13 171 -13 l167 0 -7
-42 c-4 -23 -9 -44 -11 -46 -2 -2 -22 -8 -44 -13 -58 -13 -129 6 -133 35 -3
19 -10 21 -72 24 l-69 3 7 -73 c4 -42 12 -77 20 -83 7 -5 57 -23 110 -39 l96
-29 96 29 c53 16 103 34 111 39 9 7 18 59 27 165 8 85 12 158 10 162 -3 4 -83
8 -178 8 -172 0 -174 0 -180 23 -3 12 -6 25 -6 29 0 4 84 9 188 10 l187 3 5
57 c3 32 4 62 2 68 -5 15 -519 14 -524 -1z m482 -59 l0 -30 -185 0 c-210 0
-202 4 -188 -82 l8 -53 175 -3 176 -2 -11 -130 c-7 -72 -13 -132 -16 -134 -2
-2 -43 -16 -91 -31 l-88 -26 -89 27 c-93 28 -101 35 -101 92 0 18 6 22 29 22
23 0 30 -5 33 -22 5 -34 105 -52 191 -35 l62 13 7 44 c3 25 7 62 7 83 l1 37
-169 0 -169 0 -6 43 c-3 23 -8 81 -12 130 l-7 87 222 0 221 0 0 -30z"/>
    </g>
</svg>
