<?xml version="1.0" standalone="no"?>
<!DOCTYPE svg PUBLIC "-//W3C//DTD SVG 20010904//EN"
 "http://www.w3.org/TR/2001/REC-SVG-20010904/DTD/svg10.dtd">
<svg version="1.0" xmlns="http://www.w3.org/2000/svg"
 width="100.000000pt" height="100.000000pt" viewBox="0 0 100.000000 100.000000"
 preserveAspectRatio="xMidYMid meet">

<g transform="translate(0.000000,100.000000) scale(0.100000,-0.100000)"
fill="#000000" stroke="none">
<path d="M179 921 c-24 -24 -29 -38 -29 -75 0 -32 -4 -46 -14 -46 -25 0 -66
-41 -66 -65 0 -28 35 -65 62 -65 17 0 18 -13 18 -170 0 -157 -1 -170 -18 -170
-27 0 -62 -37 -62 -65 0 -24 41 -65 66 -65 10 0 14 -14 14 -46 0 -37 5 -51 29
-75 l29 -29 327 0 c205 0 333 4 346 10 47 26 49 45 49 440 0 395 -2 414 -49
440 -13 6 -141 10 -346 10 l-327 0 -29 -29z m679 -27 l22 -15 0 -379 0 -379
-22 -15 c-19 -14 -67 -16 -318 -16 -336 0 -340 1 -340 70 0 33 4 39 30 48 33
12 51 55 30 75 -9 9 -15 7 -27 -11 -13 -18 -25 -22 -64 -22 -37 0 -49 4 -49
15 0 10 10 15 28 15 49 0 52 10 52 204 l0 181 33 15 c34 16 48 53 27 74 -9 8
-16 5 -27 -11 -13 -19 -25 -23 -64 -23 -37 0 -49 4 -49 15 0 10 10 15 34 15
40 0 46 11 46 80 0 81 -4 80 340 80 251 0 299 -2 318 -16z"/>
<path d="M325 838 c-3 -7 -4 -164 -3 -348 3 -327 3 -335 23 -335 20 0 20 7 20
345 0 321 -1 345 -18 348 -9 2 -19 -3 -22 -10z"/>
<path d="M455 730 c-15 -25 13 -30 161 -30 147 0 154 1 154 20 0 19 -7 20
-154 20 -93 0 -157 -4 -161 -10z"/>
<path d="M455 610 c-15 -25 13 -30 161 -30 147 0 154 1 154 20 0 19 -7 20
-154 20 -93 0 -157 -4 -161 -10z"/>
<path d="M462 497 c-26 -31 1 -38 154 -35 141 3 149 4 149 23 0 19 -8 20 -146
23 -111 2 -149 -1 -157 -11z"/>
<path d="M455 380 c-4 -6 -1 -18 6 -26 10 -12 39 -14 158 -12 138 3 146 4 146
23 0 19 -8 20 -152 23 -100 2 -154 -1 -158 -8z"/>
<path d="M455 260 c-15 -25 13 -30 161 -30 147 0 154 1 154 20 0 19 -7 20
-154 20 -93 0 -157 -4 -161 -10z"/>
</g>
</svg>
