<?xml version="1.0" standalone="no"?>
<!DOCTYPE svg PUBLIC "-//W3C//DTD SVG 20010904//EN"
 "http://www.w3.org/TR/2001/REC-SVG-20010904/DTD/svg10.dtd">
<svg version="1.0"
    xmlns="http://www.w3.org/2000/svg" width="30.000000pt" height="30.000000pt" viewBox="0 0 100.000000 100.000000" preserveAspectRatio="xMidYMid meet">

    <g transform="translate(0.000000,100.000000) scale(0.100000,-0.100000)" fill="#0f7db8" stroke="none">
        <path d="M97 902 c-15 -17 -17 -59 -17 -404 0 -360 1 -386 18 -401 17 -15 59
-17 404 -17 360 0 386 1 401 18 15 17 17 59 17 404 0 360 -1 386 -18 401 -17
15 -59 17 -404 17 -360 0 -386 -1 -401 -18z m783 -402 l0 -380 -380 0 -380 0
0 380 0 380 380 0 380 0 0 -380z"/>
        <path d="M458 399 c-3 -122 -5 -143 -20 -153 -14 -8 -26 -6 -52 8 -33 18 -37
18 -61 2 -24 -16 -24 -18 -9 -40 39 -60 143 -72 193 -22 26 26 26 29 29 186
l3 160 -40 0 -40 0 -3 -141z"/>
        <path d="M648 524 c-33 -18 -48 -43 -48 -83 0 -53 20 -79 87 -113 65 -34 84
-58 63 -83 -19 -23 -61 -18 -90 10 l-25 24 -29 -22 -28 -23 31 -32 c54 -54
149 -55 203 -2 58 59 29 137 -70 184 -62 30 -76 44 -66 71 7 18 55 20 72 3 9
-9 18 -9 37 0 34 16 31 38 -7 62 -39 23 -92 25 -130 4z"/>
    </g>
</svg>
