<?xml version="1.0" standalone="no"?>
<!DOCTYPE svg PUBLIC "-//W3C//DTD SVG 20010904//EN"
 "http://www.w3.org/TR/2001/REC-SVG-20010904/DTD/svg10.dtd">
<svg version="1.0"
    xmlns="http://www.w3.org/2000/svg" width="30.000000pt" height="30.000000pt" viewBox="0 0 100.000000 100.000000" preserveAspectRatio="xMidYMid meet">

    <g transform="translate(0.000000,100.000000) scale(0.100000,-0.100000)" fill="#0f7db8" stroke="none">
        <path d="M570 959 c0 -30 -31 -74 -85 -119 -86 -72 -134 -125 -140 -152 -9
-40 27 -109 82 -158 26 -22 47 -39 49 -37 2 1 -10 29 -26 61 -17 32 -30 69
-30 81 0 26 42 85 95 135 64 61 95 154 65 200 -8 12 -10 10 -10 -11z"/>
        <path d="M643 806 c-90 -29 -143 -80 -143 -141 0 -15 15 -53 33 -86 31 -57 31
-60 16 -88 -16 -27 -16 -28 2 -24 25 7 69 60 69 84 0 10 -12 43 -27 73 -25 52
-26 55 -9 81 9 14 44 46 78 70 62 47 58 54 -19 31z"/>
        <path d="M315 495 c-5 -2 -31 -6 -57 -10 -46 -6 -78 -25 -78 -46 0 -57 389
-62 478 -7 18 11 31 22 30 24 -2 2 -44 -1 -93 -6 -102 -11 -248 -11 -285 -1
-27 7 -22 13 30 38 21 10 22 11 5 11 -11 0 -24 -1 -30 -3z"/>
        <path d="M745 490 c-19 -7 -18 -8 7 -18 59 -24 56 -77 -10 -144 -39 -41 -32
-47 23 -24 56 24 85 62 85 112 0 34 -5 47 -26 63 -28 22 -46 25 -79 11z"/>
        <path d="M277 362 c-10 -10 -17 -23 -17 -29 0 -47 307 -58 389 -13 11 6 7 12
-17 24 -25 13 -40 14 -74 6 -49 -11 -171 -12 -208 -1 -14 4 -24 13 -22 19 3
19 -33 14 -51 -6z"/>
        <path d="M309 259 c-25 -25 -14 -42 38 -60 63 -20 293 4 293 32 0 3 -12 14
-26 24 -22 14 -33 15 -69 6 -67 -17 -174 -14 -181 4 -8 21 -30 19 -55 -6z"/>
        <path d="M167 220 c-57 -17 -74 -52 -39 -83 98 -88 578 -82 668 8 29 29 30 38
7 61 -17 16 -18 16 -23 -7 -11 -49 -126 -79 -305 -79 -156 0 -275 26 -275 59
0 5 16 15 36 21 64 22 -2 40 -69 20z"/>
        <path d="M860 109 c-14 -10 -61 -31 -105 -45 -96 -32 -285 -43 -404 -25 -40 6
-75 10 -77 8 -9 -9 150 -39 231 -44 158 -10 325 31 368 89 26 35 19 43 -13 17z"/>
    </g>
</svg>
