<?xml version="1.0" standalone="no"?>
<!DOCTYPE svg PUBLIC "-//W3C//DTD SVG 20010904//EN"
 "http://www.w3.org/TR/2001/REC-SVG-20010904/DTD/svg10.dtd">
<svg version="1.0" xmlns="http://www.w3.org/2000/svg"
 width="30.000000pt" height="30.000000pt" viewBox="0 0 392.000000 637.000000"
 preserveAspectRatio="xMidYMid meet">

<g transform="translate(0.000000,637.000000) scale(0.100000,-0.100000)"
fill="#0f7db8" stroke="none">
<path d="M958 6360 c-340 -54 -604 -293 -688 -624 -28 -109 -28 -283 0 -392
48 -189 156 -350 315 -469 63 -48 218 -124 267 -132 l38 -6 0 -243 c0 -229 -1
-244 -18 -244 -10 0 -56 -11 -103 -25 -390 -117 -675 -438 -749 -845 -18 -96
-15 -281 5 -380 32 -157 82 -273 178 -413 145 -212 419 -392 660 -432 l37 -6
0 -254 0 -253 -52 -12 c-118 -25 -313 -147 -395 -248 -103 -125 -170 -262
-194 -396 -7 -41 -10 -120 -7 -195 4 -107 10 -139 36 -214 118 -342 431 -567
787 -567 275 0 528 137 684 370 98 147 134 270 134 455 0 151 -20 241 -78 359
-102 206 -298 375 -503 432 l-62 17 0 253 0 252 70 16 c193 43 412 173 542
320 l36 41 34 -19 c18 -11 83 -56 145 -100 62 -45 137 -98 167 -119 l54 -39
-14 -50 c-69 -262 30 -589 237 -783 95 -89 193 -146 329 -191 77 -25 99 -28
235 -28 130 -1 160 2 225 22 175 55 284 125 403 259 109 124 176 278 196 453
46 416 -243 811 -656 896 -124 26 -303 16 -416 -24 -110 -38 -232 -110 -312
-184 l-61 -56 -72 51 c-40 29 -126 90 -193 137 -97 69 -119 89 -116 105 3 11
15 56 28 100 19 69 22 103 22 245 1 147 -2 176 -26 264 -16 58 -23 102 -18
106 6 3 51 35 101 70 50 36 131 93 179 128 49 34 92 62 98 62 5 0 27 -18 48
-41 52 -53 138 -112 228 -155 220 -104 475 -103 696 1 422 200 593 697 386
1119 -47 96 -132 202 -220 275 -61 50 -228 134 -310 156 -94 25 -256 30 -351
12 -164 -31 -325 -116 -438 -232 -110 -112 -166 -207 -212 -362 -23 -76 -27
-106 -27 -218 0 -85 6 -149 15 -183 l15 -53 -76 -56 c-42 -30 -130 -93 -195
-139 l-119 -84 -58 64 c-92 100 -247 208 -370 257 -30 11 -94 31 -144 44 l-90
23 -3 236 -2 235 42 11 c406 104 672 516 604 934 -64 388 -385 673 -778 691
-51 2 -119 0 -150 -5z m287 -454 c158 -78 256 -261 227 -425 -48 -271 -335
-421 -577 -301 -238 118 -300 432 -123 625 94 103 172 136 313 133 87 -3 108
-7 160 -32z m1911 -1127 c136 -25 236 -101 300 -228 27 -51 29 -65 29 -166 0
-98 -3 -116 -27 -167 -92 -198 -316 -286 -523 -208 -76 29 -160 108 -206 193
-33 60 -34 65 -34 177 0 107 2 119 29 175 34 69 114 153 174 184 42 21 138 49
178 50 11 1 47 -4 80 -10z m-1898 -1049 c95 -32 140 -61 216 -138 102 -102
159 -245 158 -396 0 -156 -54 -282 -168 -393 -142 -139 -318 -189 -515 -148
-164 35 -324 166 -387 318 -68 163 -69 292 -3 457 49 120 166 235 295 289 138
57 258 61 404 11z m2008 -1354 c84 -42 148 -107 191 -194 26 -52 28 -67 28
-167 0 -100 -3 -115 -28 -166 -83 -170 -253 -261 -430 -231 -40 7 -95 24 -124
38 -64 31 -147 120 -182 194 -23 49 -26 67 -26 170 0 112 1 117 34 178 54 99
163 185 268 212 21 5 73 8 117 5 66 -3 91 -9 152 -39z m-2073 -1157 c152 -50
260 -181 281 -344 21 -154 -82 -333 -232 -407 -62 -31 -74 -33 -167 -33 -92 0
-106 3 -167 32 -88 41 -160 113 -201 201 -29 61 -32 75 -32 167 0 96 2 104 37
177 91 182 292 269 481 207z"/>
</g>
</svg>
