<?xml version="1.0" standalone="no"?>
<!DOCTYPE svg PUBLIC "-//W3C//DTD SVG 20010904//EN"
 "http://www.w3.org/TR/2001/REC-SVG-20010904/DTD/svg10.dtd">
<svg version="1.0"
    xmlns="http://www.w3.org/2000/svg" width="27.000000pt" height="27.000000pt" viewBox="0 0 100.000000 100.000000" preserveAspectRatio="xMidYMid meet">

    <g transform="translate(0.000000,100.000000) scale(0.100000,-0.100000)" fill="#0f7db8" stroke="none">
        <path d="M17 982 c-25 -28 -21 -53 22 -119 21 -33 46 -87 56 -119 9 -33 28
-78 42 -102 24 -42 24 -45 9 -83 -23 -58 -21 -179 3 -228 21 -40 68 -68 96
-57 9 3 22 20 29 37 l13 31 31 -49 c43 -67 107 -127 126 -120 23 9 20 24 -8
42 -32 21 -99 118 -130 189 -16 35 -31 56 -38 54 -7 -3 -16 -31 -20 -64 -11
-81 -14 -87 -37 -75 -44 24 -56 162 -21 239 l19 43 -34 62 c-18 34 -39 82 -45
107 -6 25 -30 73 -52 108 -32 49 -38 66 -29 75 10 9 26 5 74 -22 34 -18 90
-39 125 -47 178 -37 313 -169 421 -407 43 -94 43 -94 104 -123 70 -33 160
-101 152 -114 -3 -5 -33 -14 -66 -21 -34 -7 -63 -18 -66 -26 -3 -7 5 -28 17
-46 31 -44 170 -151 181 -140 17 17 -2 42 -72 94 -39 28 -68 56 -66 62 2 6 31
18 66 27 34 10 68 23 74 30 18 18 -98 120 -182 162 -68 32 -70 35 -101 104
-111 251 -257 394 -452 439 -35 8 -88 28 -118 45 -63 34 -100 38 -123 12z"/>
        <path d="M190 839 c0 -17 59 -71 70 -64 16 10 12 40 -8 58 -21 19 -62 23 -62
6z"/>
    </g>
</svg>
