<?xml version="1.0" standalone="no"?>
<!DOCTYPE svg PUBLIC "-//W3C//DTD SVG 20010904//EN"
 "http://www.w3.org/TR/2001/REC-SVG-20010904/DTD/svg10.dtd">
<svg version="1.0"
    xmlns="http://www.w3.org/2000/svg" width="27.000000pt" height="27.000000pt" viewBox="0 0 100.000000 100.000000" preserveAspectRatio="xMidYMid meet">

    <g transform="translate(0.000000,100.000000) scale(0.100000,-0.100000)" fill="#0f7db8" stroke="none">
        <path d="M174 880 c-32 -13 -72 -67 -80 -107 -25 -135 69 -463 136 -471 18 -2
35 7 60 33 32 33 33 37 20 58 -40 63 -42 76 -38 205 4 134 22 198 70 249 l20
21 -38 11 c-46 13 -120 13 -150 1z"/>
        <path d="M681 843 c84 -78 91 -101 87 -269 -1 -79 -2 -144 0 -144 9 0 72 153
86 206 23 88 21 145 -6 179 -30 38 -113 75 -170 75 l-47 0 50 -47z"/>
        <path d="M422 853 c-38 -18 -67 -56 -87 -112 l-14 -40 35 6 c41 7 85 -10 103
-40 23 -36 26 -156 6 -216 l-17 -52 25 -19 c22 -18 25 -27 29 -129 7 -135 24
-174 80 -179 29 -3 40 2 65 31 29 33 30 40 35 146 4 74 11 118 21 134 13 20
13 25 0 42 -27 36 -62 113 -72 156 -13 59 6 103 52 120 l36 13 -19 37 c-50 97
-186 147 -278 102z"/>
        <path d="M333 652 c-20 -13 -19 -176 1 -207 15 -22 54 -51 60 -43 17 21 36
101 36 147 0 53 -2 59 -19 54 -13 -3 -23 2 -31 16 -9 18 -8 23 12 31 21 8 19
9 -12 9 -19 0 -40 -3 -47 -7z"/>
        <path d="M705 650 c3 -5 8 -10 11 -10 2 0 4 5 4 10 0 6 -5 10 -11 10 -5 0 -7
-4 -4 -10z"/>
        <path d="M688 602 c-16 -7 -15 -11 7 -61 14 -30 27 -52 29 -50 6 7 -6 119 -13
118 -3 0 -14 -3 -23 -7z"/>
        <path d="M740 346 c-6 -18 -3 -21 22 -24 33 -4 81 13 98 33 9 10 -2 13 -51 12
-52 0 -62 -3 -69 -21z"/>
        <path d="M365 336 c-22 -7 -39 -17 -38 -22 3 -15 63 -22 99 -12 36 10 41 17
22 36 -14 14 -30 14 -83 -2z"/>
    </g>
</svg>
