<?xml version="1.0" standalone="no"?>
<!DOCTYPE svg PUBLIC "-//W3C//DTD SVG 20010904//EN"
 "http://www.w3.org/TR/2001/REC-SVG-20010904/DTD/svg10.dtd">
<svg version="1.0"
    xmlns="http://www.w3.org/2000/svg" width="30.000000pt" height="30.000000pt" viewBox="0 0 100.000000 100.000000" preserveAspectRatio="xMidYMid meet">

    <g transform="translate(0.000000,100.000000) scale(0.100000,-0.100000)" fill="#0f7db8" stroke="none">
        <path d="M299 846 c-37 -21 -59 -74 -59 -140 0 -55 -1 -56 -39 -75 -69 -36
-111 -102 -97 -155 9 -36 53 -84 97 -107 38 -19 39 -20 39 -75 0 -106 50 -161
137 -151 24 2 61 16 83 31 l40 26 40 -26 c22 -15 59 -29 83 -31 87 -10 137 45
137 151 0 55 1 56 39 75 69 36 111 102 97 155 -9 36 -53 84 -97 107 -38 19
-39 20 -39 75 0 106 -50 161 -137 151 -24 -2 -61 -16 -83 -31 l-40 -26 -40 26
c-49 33 -123 41 -161 20z m117 -62 c19 -9 34 -19 34 -23 0 -19 -70 -69 -108
-79 -49 -12 -56 -5 -47 41 16 76 52 94 121 61z m268 -6 c17 -27 30 -84 22 -97
-10 -16 -90 11 -123 42 -18 17 -33 34 -33 38 0 12 64 39 92 39 18 0 33 -8 42
-22z m-169 -68 c3 -5 -3 -10 -15 -10 -12 0 -18 5 -15 10 3 6 10 10 15 10 5 0
12 -4 15 -10z m106 -139 c22 -36 39 -67 39 -71 0 -4 -17 -35 -39 -71 l-39 -64
-79 -3 -80 -3 -25 38 c-56 85 -60 99 -42 136 10 17 28 49 42 70 l25 38 80 -3
79 -3 39 -64z m-292 32 c-7 -10 -15 -20 -16 -22 -2 -2 -3 5 -3 17 0 14 6 22
16 22 14 0 15 -3 3 -17z m361 -5 c0 -12 -1 -19 -3 -17 -1 2 -9 12 -16 22 -12
14 -11 17 3 17 10 0 16 -8 16 -22z m-427 -53 c14 -40 14 -50 1 -90 l-16 -45
-29 15 c-70 37 -74 99 -10 142 19 13 35 23 37 23 1 0 9 -20 17 -45z m567 -18
c13 -24 13 -30 0 -54 -8 -15 -29 -35 -47 -45 l-31 -19 -15 46 c-14 41 -14 49
0 90 l15 46 31 -19 c18 -10 39 -30 47 -45z m-501 -129 c12 -15 11 -18 -3 -18
-10 0 -16 8 -16 22 0 12 1 19 3 17 1 -2 9 -12 16 -21z m361 2 c0 -11 -7 -20
-15 -20 -13 0 -13 3 -3 20 7 11 14 20 15 20 2 0 3 -9 3 -20z m-268 -127 c31
-32 31 -33 12 -48 -26 -20 -84 -30 -103 -18 -19 12 -45 87 -38 107 9 24 91 -2
129 -41z m283 8 c-9 -52 -31 -81 -61 -81 -28 0 -94 28 -94 39 0 4 14 20 31 37
28 27 104 56 122 46 5 -2 6 -21 2 -41z m-193 7 c-9 -9 -15 -9 -24 0 -9 9 -7
12 12 12 19 0 21 -3 12 -12z"/>
        <path d="M472 560 c-49 -20 -48 -101 3 -120 55 -21 106 30 85 85 -7 19 -50 49
-63 44 -1 0 -12 -4 -25 -9z"/>
    </g>
</svg>
