<?xml version="1.0" standalone="no"?>
<!DOCTYPE svg PUBLIC "-//W3C//DTD SVG 20010904//EN"
 "http://www.w3.org/TR/2001/REC-SVG-20010904/DTD/svg10.dtd">
<svg version="1.0"
    xmlns="http://www.w3.org/2000/svg" width="30.000000pt" height="30.000000pt" viewBox="0 0 100.000000 100.000000" preserveAspectRatio="xMidYMid meet">

    <g transform="translate(0.000000,100.000000) scale(0.100000,-0.100000)" fill="#0f7db8" stroke="none">
        <path d="M406 938 c-9 -12 -16 -30 -16 -40 0 -10 -10 -20 -25 -24 -14 -3 -52
-23 -84 -44 -51 -33 -65 -38 -99 -33 l-40 5 -36 -64 c-40 -73 -44 -98 -18
-121 25 -23 25 -206 -1 -235 -25 -27 -21 -47 19 -120 l36 -64 40 5 c34 5 48 0
99 -33 32 -21 70 -41 84 -44 15 -4 25 -14 25 -24 0 -10 7 -28 16 -40 13 -20
24 -22 94 -22 70 0 81 2 94 22 9 12 16 30 16 40 0 10 10 20 25 24 14 3 52 23
84 44 51 33 65 38 99 33 l40 -5 36 64 c40 73 44 98 18 121 -25 23 -25 206 1
235 25 27 21 47 -19 120 l-36 64 -40 -5 c-34 -5 -48 0 -99 33 -32 21 -70 41
-84 44 -15 4 -25 14 -25 24 0 10 -7 28 -16 40 -13 20 -24 22 -94 22 -70 0 -81
-2 -94 -22z m162 -51 c3 -23 14 -32 75 -61 40 -18 83 -45 96 -59 19 -21 27
-24 48 -16 41 15 49 11 77 -42 l28 -51 -24 -26 c-19 -21 -23 -33 -17 -52 9
-32 9 -128 0 -160 -6 -19 -2 -31 17 -52 l24 -26 -28 -51 c-28 -53 -36 -57 -77
-42 -21 8 -29 5 -48 -16 -13 -14 -56 -41 -96 -59 -61 -29 -72 -38 -75 -61 -3
-27 -5 -28 -68 -28 -63 0 -65 1 -68 28 -3 23 -14 32 -75 61 -40 18 -83 45 -96
59 -19 21 -27 24 -48 16 -41 -15 -49 -11 -77 42 l-28 51 24 26 c19 21 23 33
17 52 -9 32 -9 128 0 160 6 19 2 31 -17 52 l-24 26 28 51 c28 53 36 57 77 42
21 -8 29 -5 48 16 13 14 57 41 97 60 59 27 72 38 72 57 0 33 8 37 75 34 57 -3
60 -4 63 -31z"/>
        <path d="M310 618 c-24 -59 -71 -230 -66 -243 9 -24 26 -17 37 15 10 26 16 30
49 30 33 0 39 -4 49 -30 11 -32 28 -39 37 -15 3 8 -8 60 -25 117 -39 126 -48
148 -61 148 -6 0 -15 -10 -20 -22z m37 -118 c10 -39 10 -40 -17 -40 -27 0 -27
1 -17 40 6 22 14 40 17 40 3 0 11 -18 17 -40z"/>
        <path d="M464 627 c-2 -7 -3 -69 -2 -138 3 -102 6 -124 18 -124 11 0 16 13 18
48 l3 47 40 0 c56 0 79 26 79 90 0 69 -22 90 -95 90 -37 0 -57 -4 -61 -13z
m111 -77 c0 -45 0 -45 -37 -48 l-38 -3 0 51 0 51 38 -3 c37 -3 37 -3 37 -48z"/>
        <path d="M664 629 c-3 -6 -1 -16 5 -22 6 -6 11 -50 11 -107 0 -57 -5 -101 -11
-107 -17 -17 -2 -33 31 -33 33 0 48 16 31 33 -6 6 -11 50 -11 107 0 57 5 101
11 107 17 17 2 33 -31 33 -16 0 -32 -5 -36 -11z"/>
    </g>
</svg>
